<svg id="visual" viewBox="0 0 960 300" width="960" height="300" xmlns="http://www.w3.org/2000/svg" xmlns:xlink="http://www.w3.org/1999/xlink" version="1.1"><rect x="0" y="0" width="960" height="300" fill="#DC143C"></rect><path d="M0 165L20 157C40 149 80 133 120 135.5C160 138 200 159 240 164.2C280 169.3 320 158.7 360 149.3C400 140 440 132 480 128.5C520 125 560 126 600 128.3C640 130.7 680 134.3 720 132C760 129.7 800 121.3 840 122C880 122.7 920 132.3 940 137.2L960 142L960 0L940 0C920 0 880 0 840 0C800 0 760 0 720 0C680 0 640 0 600 0C560 0 520 0 480 0C440 0 400 0 360 0C320 0 280 0 240 0C200 0 160 0 120 0C80 0 40 0 20 0L0 0Z" fill="#ff2a78"></path><path d="M0 98L20 97.5C40 97 80 96 120 101.7C160 107.3 200 119.7 240 127.2C280 134.7 320 137.3 360 134.3C400 131.3 440 122.7 480 118.2C520 113.7 560 113.3 600 109C640 104.7 680 96.3 720 94.7C760 93 800 98 840 100.5C880 103 920 103 940 103L960 103L960 0L940 0C920 0 880 0 840 0C800 0 760 0 720 0C680 0 640 0 600 0C560 0 520 0 480 0C440 0 400 0 360 0C320 0 280 0 240 0C200 0 160 0 120 0C80 0 40 0 20 0L0 0Z" fill="#a13e8d"></path><path d="M0 84L20 79.7C40 75.3 80 66.7 120 68.2C160 69.7 200 81.3 240 85.3C280 89.3 320 85.7 360 78C400 70.3 440 58.7 480 61.2C520 63.7 560 80.3 600 82.2C640 84 680 71 720 69.8C760 68.7 800 79.3 840 79C880 78.7 920 67.3 940 61.7L960 56L960 0L940 0C920 0 880 0 840 0C800 0 760 0 720 0C680 0 640 0 600 0C560 0 520 0 480 0C440 0 400 0 360 0C320 0 280 0 240 0C200 0 160 0 120 0C80 0 40 0 20 0L0 0Z" fill="#473d6e"></path><path d="M0 48L20 45.2C40 42.3 80 36.7 120 32.5C160 28.3 200 25.7 240 25.8C280 26 320 29 360 32.7C400 36.3 440 40.7 480 42.7C520 44.7 560 44.3 600 40.7C640 37 680 30 720 25.8C760 21.7 800 20.3 840 24.5C880 28.7 920 38.3 940 43.2L960 48L960 0L940 0C920 0 880 0 840 0C800 0 760 0 720 0C680 0 640 0 600 0C560 0 520 0 480 0C440 0 400 0 360 0C320 0 280 0 240 0C200 0 160 0 120 0C80 0 40 0 20 0L0 0Z" fill="#202731"></path></svg>