<svg id="visual" viewBox="0 0 960 300" width="960" height="300" xmlns="http://www.w3.org/2000/svg" xmlns:xlink="http://www.w3.org/1999/xlink" version="1.1"><rect x="0" y="0" width="960" height="300" fill="#DC143C"></rect><path d="M0 212L20 214.7C40 217.3 80 222.7 120 222.7C160 222.7 200 217.3 240 222.2C280 227 320 242 360 238.5C400 235 440 213 480 212.8C520 212.7 560 234.3 600 245.7C640 257 680 258 720 239.8C760 221.7 800 184.3 840 180.3C880 176.3 920 205.7 940 220.3L960 235L960 0L940 0C920 0 880 0 840 0C800 0 760 0 720 0C680 0 640 0 600 0C560 0 520 0 480 0C440 0 400 0 360 0C320 0 280 0 240 0C200 0 160 0 120 0C80 0 40 0 20 0L0 0Z" fill="#c916e9"></path><path d="M0 184L20 179.5C40 175 80 166 120 163.8C160 161.7 200 166.3 240 174.2C280 182 320 193 360 198.7C400 204.3 440 204.7 480 193.8C520 183 560 161 600 156.5C640 152 680 165 720 159.7C760 154.3 800 130.7 840 134.5C880 138.3 920 169.7 940 185.3L960 201L960 0L940 0C920 0 880 0 840 0C800 0 760 0 720 0C680 0 640 0 600 0C560 0 520 0 480 0C440 0 400 0 360 0C320 0 280 0 240 0C200 0 160 0 120 0C80 0 40 0 20 0L0 0Z" fill="#992fd9"></path><path d="M0 128L20 123.2C40 118.3 80 108.7 120 98.2C160 87.7 200 76.3 240 82.2C280 88 320 111 360 122.3C400 133.7 440 133.3 480 122.2C520 111 560 89 600 87.7C640 86.3 680 105.7 720 111.7C760 117.7 800 110.3 840 108.3C880 106.3 920 109.7 940 111.3L960 113L960 0L940 0C920 0 880 0 840 0C800 0 760 0 720 0C680 0 640 0 600 0C560 0 520 0 480 0C440 0 400 0 360 0C320 0 280 0 240 0C200 0 160 0 120 0C80 0 40 0 20 0L0 0Z" fill="#6b36c5"></path><path d="M0 79L20 80.7C40 82.3 80 85.7 120 80.2C160 74.7 200 60.3 240 58.2C280 56 320 66 360 70.8C400 75.7 440 75.3 480 73.5C520 71.7 560 68.3 600 70.3C640 72.3 680 79.7 720 74.2C760 68.7 800 50.3 840 44.7C880 39 920 46 940 49.5L960 53L960 0L940 0C920 0 880 0 840 0C800 0 760 0 720 0C680 0 640 0 600 0C560 0 520 0 480 0C440 0 400 0 360 0C320 0 280 0 240 0C200 0 160 0 120 0C80 0 40 0 20 0L0 0Z" fill="#3e36ad"></path></svg>