<svg id="visual" viewBox="0 0 960 300" width="960" height="300" xmlns="http://www.w3.org/2000/svg" xmlns:xlink="http://www.w3.org/1999/xlink" version="1.1"><rect x="0" y="0" width="960" height="300" fill="#3e36ad"></rect><path d="M0 147L20 140.3C40 133.7 80 120.3 120 124.7C160 129 200 151 240 158.2C280 165.3 320 157.7 360 155.2C400 152.7 440 155.3 480 153.5C520 151.7 560 145.3 600 147.7C640 150 680 161 720 157.7C760 154.3 800 136.7 840 130.3C880 124 920 129 940 131.5L960 134L960 0L940 0C920 0 880 0 840 0C800 0 760 0 720 0C680 0 640 0 600 0C560 0 520 0 480 0C440 0 400 0 360 0C320 0 280 0 240 0C200 0 160 0 120 0C80 0 40 0 20 0L0 0Z" fill="#ff2a78"></path><path d="M0 74L20 75.8C40 77.7 80 81.3 120 83.8C160 86.3 200 87.7 240 87C280 86.3 320 83.7 360 82.3C400 81 440 81 480 88C520 95 560 109 600 110.2C640 111.3 680 99.7 720 96C760 92.3 800 96.7 840 101C880 105.3 920 109.7 940 111.8L960 114L960 0L940 0C920 0 880 0 840 0C800 0 760 0 720 0C680 0 640 0 600 0C560 0 520 0 480 0C440 0 400 0 360 0C320 0 280 0 240 0C200 0 160 0 120 0C80 0 40 0 20 0L0 0Z" fill="#f52063"></path><path d="M0 54L20 56.8C40 59.7 80 65.3 120 67C160 68.7 200 66.3 240 68.3C280 70.3 320 76.7 360 81C400 85.3 440 87.7 480 88.8C520 90 560 90 600 87C640 84 680 78 720 70.5C760 63 800 54 840 56.7C880 59.3 920 73.7 940 80.8L960 88L960 0L940 0C920 0 880 0 840 0C800 0 760 0 720 0C680 0 640 0 600 0C560 0 520 0 480 0C440 0 400 0 360 0C320 0 280 0 240 0C200 0 160 0 120 0C80 0 40 0 20 0L0 0Z" fill="#e9184f"></path><path d="M0 61L20 54.3C40 47.7 80 34.3 120 27.3C160 20.3 200 19.7 240 24.3C280 29 320 39 360 41.5C400 44 440 39 480 38.7C520 38.3 560 42.7 600 44.2C640 45.7 680 44.3 720 43C760 41.7 800 40.3 840 43.2C880 46 920 53 940 56.5L960 60L960 0L940 0C920 0 880 0 840 0C800 0 760 0 720 0C680 0 640 0 600 0C560 0 520 0 480 0C440 0 400 0 360 0C320 0 280 0 240 0C200 0 160 0 120 0C80 0 40 0 20 0L0 0Z" fill="#dc143c"></path></svg>